<svg width="200" height="200" viewBox="0 0 200 200" fill="none" xmlns="http://www.w3.org/2000/svg">
<rect width="200" height="200" rx="75" fill="url(#paint0_linear_2525_4)"/>
<rect x="4" y="4" width="192" height="192" rx="71" stroke="white" stroke-opacity="0.3" stroke-width="8"/>
<path d="M172.852 119.574C173.633 118.793 173.633 117.527 172.852 116.746L157.994 101.888C157.213 101.107 157.213 99.8407 157.994 99.0597L172.829 84.2255C173.61 83.4445 173.61 82.1781 172.829 81.3971L161.532 70.1004C160.751 69.3193 159.484 69.3193 158.703 70.1004L143.869 84.9345C143.088 85.7155 141.822 85.7155 141.041 84.9345L126.183 70.0768C125.402 69.2957 124.136 69.2957 123.355 70.0768L112.077 81.3547C111.296 82.1357 111.296 83.4021 112.077 84.1831L126.935 99.0408C127.716 99.8219 127.716 101.088 126.935 101.869L112.1 116.703C111.319 117.484 111.319 118.751 112.1 119.532L123.397 130.829C124.178 131.61 125.444 131.61 126.226 130.829L141.06 115.994C141.841 115.213 143.107 115.213 143.888 115.994L158.746 130.852C159.527 131.633 160.793 131.633 161.574 130.852L172.852 119.574Z" fill="white"/>
<path d="M112 99.0731C112 98.797 111.776 98.5731 111.5 98.5731H108.942C108.666 98.5731 108.442 98.3493 108.442 98.0731V95.5C108.442 95.2239 108.218 95 107.942 95H106.058C105.782 95 105.558 95.2239 105.558 95.5V98.0731C105.558 98.3493 105.334 98.5731 105.058 98.5731H102.5C102.224 98.5731 102 98.797 102 99.0731V100.927C102 101.203 102.224 101.427 102.5 101.427H105.058C105.334 101.427 105.558 101.651 105.558 101.927V104.5C105.558 104.776 105.782 105 106.058 105H107.942C108.218 105 108.442 104.776 108.442 104.5V101.927C108.442 101.651 108.666 101.427 108.942 101.427H111.5C111.776 101.427 112 101.203 112 100.927V99.0731Z" fill="white"/>
<path d="M99 99.0731C99 98.797 98.7761 98.5731 98.5 98.5731H95.9269C95.6507 98.5731 95.4269 98.3493 95.4269 98.0731V95.5C95.4269 95.2239 95.203 95 94.9269 95H93.0731C92.797 95 92.5731 95.2239 92.5731 95.5V98.0731C92.5731 98.3493 92.3493 98.5731 92.0731 98.5731H89.5C89.2239 98.5731 89 98.797 89 99.0731V100.927C89 101.203 89.2239 101.427 89.5 101.427H92.0731C92.3493 101.427 92.5731 101.651 92.5731 101.927V104.5C92.5731 104.776 92.797 105 93.0731 105H94.9269C95.203 105 95.4269 104.776 95.4269 104.5V101.927C95.4269 101.651 95.6507 101.427 95.9269 101.427H98.5C98.7761 101.427 99 101.203 99 100.927V99.0731Z" fill="white"/>
<path d="M62.6749 66.0798C73.0387 66.737 82.2807 71.3369 89.1086 80.6097C90.718 82.7514 90.0108 83.5302 88.0844 84.6011C84.9143 86.3048 81.7198 88.0815 78.6961 90.0772C76.6965 91.3671 75.6479 91.1967 74.0873 89.2254C69.7954 83.7249 62.6993 81.8509 55.7983 84.017C49.0924 86.1101 44.5079 92.1703 44.069 99.4473C43.7032 105.654 47.7999 112.444 53.6524 115.291C60.651 118.699 68.5762 117.165 73.9653 110.935C75.7211 108.915 76.9891 108.964 78.9887 110.205C81.8418 112.03 84.7192 113.831 87.7674 115.243C90.6205 116.606 90.3522 117.993 88.6453 120.086C79.769 131.16 68.3323 136.052 54.4083 133.204C40.4112 130.332 31.2911 121.473 27.9259 107.503C22.7807 86.2805 39.7284 65.5687 62.6506 66.0068V66.0555L62.6749 66.0798Z" fill="white"/>
<defs>
<linearGradient id="paint0_linear_2525_4" x1="100" y1="0" x2="100" y2="200" gradientUnits="userSpaceOnUse">
<stop stop-color="#00599C"/>
<stop offset="1" stop-color="#004482"/>
</linearGradient>
</defs>
</svg>
